<svg xmlns="http://www.w3.org/2000/svg" viewBox="0 0 128 128" role="img" aria-label="Chaos Planner clocktower">
  <defs>
    <linearGradient id="night" x1="0" y1="0" x2="1" y2="1">
      <stop stop-color="#321a2a"/>
      <stop offset="1" stop-color="#090b11"/>
    </linearGradient>
    <radialGradient id="blood" cx="42%" cy="35%" r="68%">
      <stop stop-color="#d24a51"/>
      <stop offset=".55" stop-color="#942a35"/>
      <stop offset="1" stop-color="#4b111b"/>
    </radialGradient>
  </defs>
  <rect x="3" y="3" width="122" height="122" rx="23" fill="url(#night)" stroke="#d8bd7c" stroke-width="5"/>
  <rect x="8" y="8" width="112" height="112" rx="18" fill="none" stroke="#f0d99a" stroke-opacity=".22" stroke-width="2"/>
  <path fill="#f5eddc" d="M59 111V51H47l6-8h4V32l-5-2 12-22 12 22-5 2v11h4l6 8H69v60h13v8H46v-8h13ZM58 42h12V31l-6-12-6 12v11Z"/>
  <path fill="#f5eddc" d="M41 56h11v8H41zm35 0h11v8H76zM45 66h8v39h-8zm30 0h8v39h-8z" opacity=".92"/>
  <circle cx="64" cy="64" r="17" fill="url(#blood)" stroke="#f0d99a" stroke-width="2.5"/>
  <circle cx="64" cy="64" r="2.5" fill="#f5eddc"/>
  <path d="M64 64V53m0 11 8-5" fill="none" stroke="#f5eddc" stroke-width="3" stroke-linecap="round"/>
</svg>
